<svg width="24" height="25" viewBox="0 0 24 25" fill="none" xmlns="http://www.w3.org/2000/svg">
<path d="M7 3.5H4C3.44772 3.5 3 3.94772 3 4.5V7.5C3 8.05228 3.44772 8.5 4 8.5H7C7.55228 8.5 8 8.05228 8 7.5V4.5C8 3.94772 7.55228 3.5 7 3.5Z" stroke="white" stroke-width="2" stroke-linecap="round" stroke-linejoin="round"/>
<path d="M20 3.5H17C16.4477 3.5 16 3.94772 16 4.5V7.5C16 8.05228 16.4477 8.5 17 8.5H20C20.5523 8.5 21 8.05228 21 7.5V4.5C21 3.94772 20.5523 3.5 20 3.5Z" stroke="white" stroke-width="2" stroke-linecap="round" stroke-linejoin="round"/>
<path d="M7 16.5H4C3.44772 16.5 3 16.9477 3 17.5V20.5C3 21.0523 3.44772 21.5 4 21.5H7C7.55228 21.5 8 21.0523 8 20.5V17.5C8 16.9477 7.55228 16.5 7 16.5Z" stroke="white" stroke-width="2" stroke-linecap="round" stroke-linejoin="round"/>
<path d="M21 16.5H18C17.4696 16.5 16.9609 16.7107 16.5858 17.0858C16.2107 17.4609 16 17.9696 16 18.5V21.5" stroke="white" stroke-width="2" stroke-linecap="round" stroke-linejoin="round"/>
<path d="M21 21.5V21.51" stroke="white" stroke-width="2" stroke-linecap="round" stroke-linejoin="round"/>
<path d="M12 7.5V10.5C12 11.0304 11.7893 11.5391 11.4142 11.9142C11.0391 12.2893 10.5304 12.5 10 12.5H7" stroke="white" stroke-width="2" stroke-linecap="round" stroke-linejoin="round"/>
<path d="M3 12.5H3.01" stroke="white" stroke-width="2" stroke-linecap="round" stroke-linejoin="round"/>
<path d="M12 3.5H12.01" stroke="white" stroke-width="2" stroke-linecap="round" stroke-linejoin="round"/>
<path d="M12 16.5V16.51" stroke="white" stroke-width="2" stroke-linecap="round" stroke-linejoin="round"/>
<path d="M16 12.5H17" stroke="white" stroke-width="2" stroke-linecap="round" stroke-linejoin="round"/>
<path d="M21 12.5V12.51" stroke="white" stroke-width="2" stroke-linecap="round" stroke-linejoin="round"/>
<path d="M12 21.5V20.5" stroke="white" stroke-width="2" stroke-linecap="round" stroke-linejoin="round"/>
</svg>
